<?xml version="1.0" standalone="no"?>
<!DOCTYPE svg PUBLIC "-//W3C//DTD SVG 20010904//EN"
 "http://www.w3.org/TR/2001/REC-SVG-20010904/DTD/svg10.dtd">
<svg version="1.0" xmlns="http://www.w3.org/2000/svg"
 width="585.000000pt" height="348.000000pt" viewBox="0 0 585.000000 348.000000"
 preserveAspectRatio="xMidYMid meet">

<g transform="translate(0.000000,348.000000) scale(0.100000,-0.100000)"
fill="#000000" stroke="none">
<path d="M2152 1198 l-2 -148 98 2 97 2 -90 5 -90 6 -5 140 -6 140 -2 -147z"/>
<path d="M2400 1200 c0 -87 4 -140 10 -140 6 0 10 53 10 140 0 87 -4 140 -10
140 -6 0 -10 -53 -10 -140z"/>
<path d="M2490 1195 l0 -145 80 0 c73 0 83 3 105 25 35 34 34 87 -1 112 l-27
20 27 26 c14 14 26 34 26 44 0 29 -29 63 -53 63 -21 0 -21 -1 3 -13 53 -26 31
-98 -34 -113 l-31 -7 35 -10 c50 -13 60 -24 60 -68 0 -54 -28 -71 -112 -67
l-63 3 0 138 c0 75 -3 137 -7 137 -5 0 -8 -65 -8 -145z"/>
<path d="M2772 1193 l2 -148 3 143 4 142 72 0 c44 0 78 -5 85 -12 31 -31 0
-96 -55 -113 -13 -3 -23 -10 -23 -14 0 -10 86 -127 99 -136 24 -14 -1 28 -57
99 l-23 29 40 24 c48 28 61 64 40 102 -14 24 -20 26 -102 29 l-87 3 2 -148z"/>
<path d="M3117 1303 c-8 -21 -36 -82 -61 -137 -26 -54 -45 -103 -44 -108 2 -6
31 49 63 122 33 74 65 135 70 137 9 3 60 -100 67 -137 2 -11 -10 -16 -52 -21
l-55 -6 63 -1 63 -2 21 -47 c24 -55 26 -58 34 -51 3 3 -11 41 -32 84 -20 44
-49 107 -65 142 -15 34 -35 62 -42 62 -8 0 -22 -17 -30 -37z"/>
<path d="M3340 1200 c0 -87 4 -140 10 -140 6 0 10 52 10 135 l0 136 78 -3 77
-3 0 -45 c0 -46 -3 -49 -83 -86 -2 -1 20 -34 49 -74 29 -40 55 -68 57 -62 2 6
-16 37 -40 68 -40 53 -41 58 -24 68 52 31 66 48 66 81 0 54 -19 65 -116 65
l-84 0 0 -140z"/>
<path d="M3597 1309 c11 -19 36 -62 57 -95 27 -46 36 -74 37 -110 l2 -49 7 50
c4 34 23 79 58 138 55 93 57 97 45 97 -5 0 -28 -36 -53 -80 -25 -44 -49 -78
-55 -77 -5 2 -29 37 -52 78 -22 40 -47 75 -54 78 -7 2 -4 -9 8 -30z"/>
<path d="M990 827 c0 -7 9 -20 20 -30 23 -20 24 -17 8 18 -12 26 -28 34 -28
12z"/>
<path d="M1208 828 c-2 -7 -1 -58 2 -113 l6 -100 2 113 c2 105 -1 129 -10 100z"/>
<path d="M1360 830 c0 -6 4 -9 9 -6 5 4 12 1 14 -4 3 -6 4 -5 3 2 -3 15 -26
23 -26 8z"/>
<path d="M1522 723 l2 -118 3 108 c2 59 7 107 12 107 4 0 41 -45 82 -100 73
-99 89 -114 89 -85 0 8 -6 15 -12 15 -7 0 -44 43 -83 95 -38 52 -76 94 -82 95
-10 0 -12 -29 -11 -117z"/>
<path d="M1850 829 c0 -7 3 -9 6 -6 8 7 54 -87 54 -108 0 -9 -15 -15 -42 -18
l-43 -4 48 -1 c44 -2 49 -5 64 -37 9 -19 20 -35 24 -35 11 0 -88 214 -101 218
-5 2 -10 -2 -10 -9z"/>
<path d="M2035 815 c-14 -13 -25 -32 -25 -42 0 -12 5 -9 16 12 21 41 18 39 92
46 l67 6 -63 1 c-55 2 -66 -1 -87 -23z"/>
<path d="M2273 833 c20 -2 54 -2 75 0 20 2 3 4 -38 4 -41 0 -58 -2 -37 -4z"/>
<path d="M2440 827 c0 -7 9 -20 20 -30 23 -20 24 -17 8 18 -12 26 -28 34 -28
12z"/>
<path d="M2657 833 c-2 -5 0 -55 3 -113 l7 -105 1 113 c2 103 0 125 -11 105z"/>
<path d="M2732 728 c1 -86 3 -100 7 -58 l6 55 60 6 60 6 -62 1 -63 2 0 45 0
44 68 4 67 3 -72 2 -73 2 2 -112z"/>
<path d="M2932 728 l2 -113 3 103 c2 56 7 102 11 102 4 0 41 -45 82 -100 40
-55 77 -100 82 -100 4 0 7 51 6 113 l-2 112 -3 -98 c-2 -54 -8 -97 -13 -95 -5
2 -40 43 -77 92 -38 49 -74 91 -81 94 -9 3 -11 -25 -10 -110z"/>
<path d="M3192 833 l37 -4 4 -107 3 -107 2 107 2 107 38 4 c20 2 1 4 -43 4
-44 0 -63 -2 -43 -4z"/>
<path d="M3537 822 c-20 -22 -22 -63 -5 -80 7 -7 31 -12 54 -12 67 0 94 -14
94 -49 0 -20 -8 -35 -22 -45 -12 -9 -17 -16 -11 -16 33 0 56 64 34 98 -4 8
-38 16 -77 20 -68 7 -69 7 -72 38 -4 42 12 52 88 57 l65 3 -66 2 c-53 2 -69
-2 -82 -16z"/>
<path d="M3761 788 c17 -32 32 -58 34 -58 8 0 -22 63 -42 88 -18 21 -16 14 8
-30z"/>
<path d="M3887 818 c-8 -13 -25 -42 -39 -66 -14 -23 -28 -39 -31 -35 -7 6 3
-88 9 -96 2 -2 4 15 4 39 0 32 10 61 39 111 22 38 38 69 36 69 -3 0 -11 -10
-18 -22z"/>
<path d="M3957 822 c-10 -10 -17 -22 -17 -26 0 -5 8 1 18 13 13 16 31 21 82
24 l65 3 -66 2 c-53 2 -69 -2 -82 -16z"/>
<path d="M4182 833 l37 -4 4 -112 3 -112 2 112 2 112 38 4 c20 2 1 4 -43 4
-44 0 -63 -2 -43 -4z"/>
<path d="M4340 730 c0 -60 3 -110 8 -110 4 0 7 24 7 52 l0 53 65 6 65 6 -67 1
-68 2 0 45 0 44 73 4 72 3 -77 2 -78 2 0 -110z"/>
<path d="M4550 813 c0 -20 3 -24 9 -14 7 11 10 9 16 -8 4 -13 9 -20 12 -18 5
6 -25 67 -32 67 -3 0 -5 -12 -5 -27z"/>
<path d="M4758 815 c-3 -13 -1 -22 3 -19 5 2 10 -39 12 -93 l3 -98 2 118 c1
64 -2 117 -7 117 -5 0 -11 -11 -13 -25z"/>
<path d="M1826 795 c-9 -26 -7 -32 5 -12 6 10 9 21 6 23 -2 3 -7 -2 -11 -11z"/>
<path d="M1405 768 c23 -58 20 -66 -27 -71 -42 -3 -42 -4 8 -5 49 -2 52 -3 69
-42 10 -22 20 -38 22 -36 2 2 -10 33 -27 70 -16 37 -30 70 -30 74 0 5 -7 17
-15 28 -13 17 -13 15 0 -18z"/>
<path d="M3940 764 c0 -21 24 -32 84 -36 42 -4 63 -10 74 -24 9 -12 13 -13 10
-4 -7 23 -48 40 -100 40 -34 0 -50 5 -57 18 -6 9 -11 12 -11 6z"/>
<path d="M2001 734 c0 -11 3 -14 6 -6 3 7 2 16 -1 19 -3 4 -6 -2 -5 -13z"/>
<path d="M1051 737 c-1 -5 11 -33 25 -63 25 -53 43 -64 52 -33 3 11 2 12 -6 0
-11 -16 -16 -10 -49 59 -12 25 -22 41 -22 37z"/>
<path d="M2240 732 c0 -5 28 -7 63 -4 89 5 94 10 10 11 -40 1 -73 -3 -73 -7z"/>
<path d="M2501 738 c-2 -16 49 -118 59 -118 11 0 34 50 26 58 -3 2 -8 -7 -12
-22 -8 -34 -20 -25 -49 37 -13 29 -24 49 -24 45z"/>
<path d="M1301 703 c-10 -26 -10 -27 4 -9 8 11 15 23 15 28 0 15 -7 8 -19 -19z"/>
<path d="M4610 728 c0 -11 30 -78 35 -78 3 0 -2 17 -10 37 -15 36 -25 52 -25
41z"/>
<path d="M1787 703 c-13 -22 -37 -87 -28 -78 10 11 42 85 36 85 -2 0 -6 -3 -8
-7z"/>
<path d="M2168 665 c-2 -25 0 -45 4 -45 5 0 8 20 8 45 0 25 -2 45 -4 45 -2 0
-6 -20 -8 -45z"/>
<path d="M2010 687 c0 -23 44 -67 67 -66 12 0 8 4 -10 11 -17 6 -35 23 -43 42
-8 19 -13 24 -14 13z"/>
<path d="M1276 655 c-3 -9 -6 -22 -5 -28 0 -7 5 -1 10 12 5 13 8 26 5 28 -2 2
-6 -3 -10 -12z"/>
<path d="M4083 644 c-12 -13 -18 -24 -13 -24 11 0 40 29 40 41 0 12 -1 11 -27
-17z"/>
<path d="M4655 630 c3 -5 10 -10 16 -10 5 0 9 5 9 10 0 6 -7 10 -16 10 -8 0
-12 -4 -9 -10z"/>
<path d="M3538 623 c7 -3 16 -2 19 1 4 3 -2 6 -13 5 -11 0 -14 -3 -6 -6z"/>
<path d="M3958 623 c7 -3 16 -2 19 1 4 3 -2 6 -13 5 -11 0 -14 -3 -6 -6z"/>
</g>
</svg>
