<?xml version="1.0" standalone="no"?>
<!DOCTYPE svg PUBLIC "-//W3C//DTD SVG 20010904//EN"
 "http://www.w3.org/TR/2001/REC-SVG-20010904/DTD/svg10.dtd">
<svg version="1.0" xmlns="http://www.w3.org/2000/svg"
 width="606.000000pt" height="361.000000pt" viewBox="0 0 606.000000 361.000000"
 preserveAspectRatio="xMidYMid meet">

<g transform="translate(0.000000,361.000000) scale(0.100000,-0.100000)"
fill="#000000" stroke="none">
<path d="M6055 1805 c0 -996 1 -1401 2 -902 2 500 2 1314 0 1810 -1 496 -2 88
-2 -908z"/>
<path d="M2553 2673 c-30 -4 -33 -7 -33 -39 0 -40 25 -57 45 -31 9 12 21 15
43 11 24 -5 32 -2 41 14 9 17 7 23 -11 36 -12 9 -29 15 -38 14 -8 0 -30 -3
-47 -5z"/>
<path d="M3536 2654 c-7 -18 0 -34 15 -34 5 0 9 11 9 25 0 28 -15 34 -24 9z"/>
<path d="M2670 2630 c0 -5 7 -7 15 -4 8 4 15 8 15 10 0 2 -7 4 -15 4 -8 0 -15
-4 -15 -10z"/>
<path d="M3465 2630 c-3 -5 -21 -10 -40 -10 -19 0 -36 -4 -40 -10 -3 -5 -12
-7 -20 -3 -19 7 -65 -23 -65 -42 0 -20 -19 -19 -27 0 -5 14 -8 14 -22 2 -9 -8
-27 -17 -41 -21 -36 -9 -54 -22 -46 -35 9 -14 63 -15 71 -1 4 6 11 8 16 5 5
-4 29 4 53 16 32 15 43 26 39 38 -4 13 -3 14 5 2 9 -12 21 -9 76 19 69 34 78
34 80 0 0 -11 3 -21 6 -22 7 -4 55 31 49 35 -43 35 -82 46 -94 27z"/>
<path d="M2390 2612 c1 -16 29 -44 39 -37 17 10 13 21 -14 33 -14 6 -25 8 -25
4z"/>
<path d="M3650 2600 c-12 -8 -11 -10 7 -10 12 0 25 5 28 10 8 13 -15 13 -35 0z"/>
<path d="M2723 2583 c-27 -5 -31 -23 -5 -23 44 0 93 13 80 21 -13 9 -36 9 -75
2z"/>
<path d="M2526 2534 c-4 -11 0 -15 16 -12 12 2 23 9 26 16 6 18 -35 15 -42 -4z"/>
<path d="M3653 2543 c-7 -2 -13 -9 -13 -14 0 -15 53 -6 58 9 4 12 -21 15 -45
5z"/>
<path d="M2393 2513 c-22 -8 -14 -23 11 -23 13 0 26 7 30 15 5 15 -15 19 -41
8z"/>
<path d="M3523 2513 c-20 -8 -15 -23 7 -23 11 0 20 7 20 15 0 15 -6 17 -27 8z"/>
<path d="M2858 2488 c16 -16 25 -19 33 -11 16 16 2 33 -29 33 l-26 0 22 -22z"/>
<path d="M3130 2495 c-14 -16 -10 -18 14 -9 9 3 16 10 16 15 0 14 -16 11 -30
-6z"/>
<path d="M2520 2416 c0 -25 4 -47 9 -50 15 -10 39 18 43 49 2 24 -1 29 -14 27
-10 -2 -18 2 -18 8 0 5 -4 10 -10 10 -5 0 -10 -20 -10 -44z"/>
<path d="M3640 2403 c0 -24 5 -43 10 -43 6 0 10 4 10 9 0 5 9 7 20 4 18 -5 20
0 20 35 0 40 -1 41 -30 39 -28 -2 -30 -4 -30 -44z"/>
<path d="M3078 2423 c-9 -2 -19 -11 -22 -19 -7 -18 -3 -18 36 6 31 19 26 24
-14 13z"/>
<path d="M2393 2413 c-7 -2 -13 -20 -13 -40 0 -27 4 -34 18 -31 9 2 18 13 20
26 2 12 8 22 13 22 5 0 9 7 9 15 0 15 -22 19 -47 8z"/>
<path d="M3516 2404 c-26 -25 -17 -58 17 -62 27 -3 28 -2 25 34 -3 43 -18 52
-42 28z"/>
<path d="M2995 2400 c3 -5 13 -10 21 -10 8 0 12 5 9 10 -3 6 -13 10 -21 10 -8
0 -12 -4 -9 -10z"/>
<path d="M2533 2313 c-22 -8 -14 -23 12 -23 16 0 25 6 25 15 0 15 -14 18 -37
8z"/>
<path d="M3663 2313 c-36 -7 -29 -30 7 -25 17 2 30 10 30 18 0 8 -3 13 -7 13
-5 -1 -18 -4 -30 -6z"/>
<path d="M2385 2279 c-11 -16 1 -22 30 -15 14 4 23 11 20 16 -8 13 -42 13 -50
-1z"/>
<path d="M3517 2284 c-14 -14 -7 -25 13 -22 12 2 21 8 21 13 0 12 -24 18 -34
9z"/>
<path d="M2555 2235 c-5 -11 -14 -24 -21 -30 -19 -15 -22 -70 -4 -70 8 0 18
13 21 30 4 17 7 22 8 11 1 -14 4 -17 11 -10 7 7 7 24 2 50 -8 33 -10 36 -17
19z"/>
<path d="M3640 2191 c0 -55 6 -63 38 -54 18 4 22 13 22 42 0 40 -14 61 -42 61
-15 0 -18 -8 -18 -49z"/>
<path d="M2380 2145 c0 -49 15 -58 43 -27 18 20 23 72 7 72 -5 0 -10 -5 -10
-12 0 -9 -3 -9 -12 0 -21 21 -28 13 -28 -33z"/>
<path d="M3509 2183 c0 -4 -2 -29 -5 -55 -4 -45 -3 -48 20 -48 21 0 25 6 31
46 3 25 5 47 3 49 -10 8 -48 15 -49 8z"/>
<path d="M2533 2083 c-7 -2 -13 -9 -13 -15 0 -14 43 -6 48 10 4 12 -12 15 -35
5z"/>
<path d="M3658 2083 c-19 -5 -25 -33 -7 -33 17 0 49 20 49 30 0 10 -12 11 -42
3z"/>
<path d="M2385 2049 c-4 -6 -5 -13 -1 -16 8 -8 56 6 56 17 0 13 -47 13 -55 -1z"/>
<path d="M3510 2045 c-12 -15 -11 -16 16 -13 16 1 28 8 27 13 -3 17 -29 17
-43 0z"/>
<path d="M2595 2010 c3 -6 -1 -13 -9 -16 -27 -10 -18 -21 35 -44 41 -17 57
-20 75 -11 13 6 32 8 41 5 10 -3 7 2 -7 10 -14 8 -34 15 -44 16 -11 0 -16 3
-12 7 3 4 -10 15 -30 25 -42 20 -58 23 -49 8z"/>
<path d="M3674 1978 c5 -25 4 -30 -6 -20 -18 18 -28 15 -28 -8 0 -12 -9 -24
-22 -29 -96 -37 -103 -41 -85 -58 13 -14 21 -14 42 -5 14 6 25 17 25 24 0 7
12 14 27 15 14 0 30 9 35 18 8 13 13 14 24 4 12 -10 14 -3 14 40 0 40 -3 51
-16 51 -13 0 -15 -7 -10 -32z"/>
<path d="M2380 1924 c0 -25 5 -33 24 -38 14 -3 35 -2 48 3 13 4 29 6 37 3 8
-3 11 0 7 7 -4 6 -12 11 -17 11 -14 0 -39 26 -39 39 0 6 -13 10 -30 9 -27 -2
-30 -6 -30 -34z"/>
<path d="M3370 1929 c0 -24 23 -21 28 4 2 10 -3 17 -12 17 -10 0 -16 -9 -16
-21z"/>
<path d="M3328 1915 c-2 -3 -31 -10 -64 -16 -85 -15 -186 -84 -154 -104 15 -9
30 4 30 26 0 10 7 19 15 19 8 0 15 -4 15 -10 0 -5 9 -10 20 -10 14 0 20 7 20
23 0 17 2 19 9 8 8 -13 16 -12 53 4 24 11 45 22 48 25 3 4 13 9 23 13 10 4 15
11 12 17 -7 11 -19 13 -27 5z"/>
<path d="M2755 1901 c-19 -8 -19 -8 2 -15 30 -10 100 4 81 15 -16 11 -56 10
-83 0z"/>
<path d="M2526 1851 c-3 -5 2 -11 12 -13 25 -7 82 2 82 13 0 12 -87 12 -94 0z"/>
<path d="M3400 1803 c-43 -7 -241 -66 -236 -70 10 -10 182 26 241 52 17 7 37
15 45 18 18 6 -11 7 -50 0z"/>
<path d="M2706 1788 c-17 -9 -11 -14 44 -34 77 -30 80 -30 80 0 0 18 -7 26
-27 31 -51 13 -78 14 -97 3z"/>
<path d="M2840 1750 c0 -5 12 -10 28 -10 21 0 24 2 12 10 -20 13 -40 13 -40 0z"/>
<path d="M3031 1721 c-10 -6 -10 -10 -1 -16 7 -4 19 0 28 9 14 13 14 16 2 16
-8 0 -21 -4 -29 -9z"/>
<path d="M2916 1701 c-8 -12 33 -19 64 -11 22 5 23 7 7 13 -26 10 -65 9 -71
-2z"/>
<path d="M2240 1318 l0 -145 51 -5 c28 -3 72 -3 98 1 40 5 34 7 -44 11 l-90 5
-1 133 c-1 73 -5 136 -8 139 -3 4 -6 -59 -6 -139z"/>
<path d="M2490 1315 c0 -90 4 -145 10 -145 6 0 10 55 10 145 0 90 -4 145 -10
145 -6 0 -10 -55 -10 -145z"/>
<path d="M2579 1365 c-1 -52 -1 -104 -1 -115 0 -11 0 -33 1 -50 l1 -30 85 0
c72 0 88 3 105 20 29 29 27 84 -4 111 l-24 21 24 23 c28 28 31 66 8 89 -21 22
-27 20 -14 -3 5 -11 10 -29 10 -40 0 -26 -38 -61 -66 -61 -13 0 -26 -4 -29
-10 -4 -6 8 -10 28 -10 41 0 67 -25 67 -67 0 -48 -26 -63 -109 -63 l-73 0 4
140 c2 77 0 140 -4 140 -5 0 -8 -43 -9 -95z"/>
<path d="M2858 1389 c-2 -39 0 -106 3 -148 5 -64 6 -55 7 60 1 90 6 139 14
147 9 9 8 12 -4 12 -13 0 -17 -14 -20 -71z"/>
<path d="M2908 1453 c7 -3 16 -2 19 1 4 3 -2 6 -13 5 -11 0 -14 -3 -6 -6z"/>
<path d="M3223 1448 c-19 -24 -125 -270 -119 -275 3 -4 12 9 20 28 73 174 126
271 126 230 0 -6 14 -40 30 -76 17 -36 30 -67 30 -70 0 -2 -26 -6 -57 -8 l-58
-3 61 -2 61 -2 23 -50 c13 -27 27 -50 32 -50 4 0 8 1 8 3 0 13 -130 282 -137
284 -6 2 -15 -2 -20 -9z"/>
<path d="M3430 1315 c0 -87 4 -145 10 -145 6 0 8 43 6 109 -3 60 -1 126 4 145
6 28 5 36 -6 36 -11 0 -14 -28 -14 -145z"/>
<path d="M3538 1453 c7 -3 16 -2 19 1 4 3 -2 6 -13 5 -11 0 -14 -3 -6 -6z"/>
<path d="M3588 1443 c15 -11 22 -26 22 -49 0 -38 -21 -63 -61 -71 -16 -3 -29
-8 -29 -10 0 -15 97 -142 109 -143 13 0 5 13 -61 99 -24 32 -23 36 12 51 36
15 50 37 50 79 0 29 -30 62 -55 60 -5 0 0 -7 13 -16z"/>
<path d="M3670 1455 c0 -2 25 -46 55 -97 46 -77 55 -100 55 -140 0 -62 15 -63
16 0 0 38 11 65 54 140 29 51 50 95 47 98 -3 3 -26 -31 -52 -75 -26 -44 -51
-83 -55 -86 -5 -3 -30 33 -56 80 -26 47 -51 85 -56 85 -4 0 -8 -2 -8 -5z"/>
<path d="M3023 1432 c34 -37 10 -95 -43 -105 -16 -4 -30 -11 -30 -16 0 -15 90
-141 101 -141 15 0 11 8 -36 68 -40 50 -43 58 -29 67 73 44 94 93 56 128 -25
23 -39 22 -19 -1z"/>
<path d="M1450 955 c0 -3 9 -16 21 -28 l21 -22 -13 28 c-11 23 -29 37 -29 22z"/>
<path d="M1612 843 l2 -118 3 103 c2 56 7 102 12 102 4 0 34 -34 67 -77 32
-42 69 -88 81 -102 l22 -26 1 26 c0 18 -5 26 -15 25 -8 0 -45 39 -83 88 -37
49 -73 91 -79 94 -10 3 -13 -24 -11 -115z"/>
<path d="M1930 939 c-7 -11 -9 -23 -6 -26 3 -3 8 2 12 11 9 23 21 20 27 -6 4
-13 13 -32 21 -43 11 -13 9 -2 -5 33 -24 57 -33 63 -49 31z"/>
<path d="M2143 945 c-24 -10 -34 -23 -42 -52 -16 -57 -12 -75 5 -21 12 38 22
52 52 67 42 23 33 27 -15 6z"/>
<path d="M2208 953 c7 -3 16 -2 19 1 4 3 -2 6 -13 5 -11 0 -14 -3 -6 -6z"/>
<path d="M2330 949 c0 -5 5 -7 10 -4 6 3 10 8 10 11 0 2 -4 4 -10 4 -5 0 -10
-5 -10 -11z"/>
<path d="M2373 953 c9 -2 25 -2 35 0 9 3 1 5 -18 5 -19 0 -27 -2 -17 -5z"/>
<path d="M2748 948 c-2 -7 -1 -60 2 -118 l7 -105 1 118 c2 111 0 134 -10 105z"/>
<path d="M3026 953 c-3 -3 -5 -56 -4 -117 l2 -111 3 103 c2 56 7 102 11 102 8
0 44 -44 109 -131 23 -31 46 -60 52 -63 8 -5 10 27 9 106 -2 103 -2 106 -5 28
-2 -47 -6 -91 -8 -98 -5 -13 -66 58 -120 140 -27 40 -39 51 -49 41z"/>
<path d="M3295 951 c18 -7 21 -20 25 -117 l5 -109 5 118 5 117 -30 -1 c-25 0
-27 -2 -10 -8z"/>
<path d="M3368 953 c7 -3 16 -2 19 1 4 3 -2 6 -13 5 -11 0 -14 -3 -6 -6z"/>
<path d="M3820 953 c0 -6 4 -14 9 -17 22 -14 81 -139 82 -174 1 -30 3 -27 9
18 5 35 19 74 40 108 18 29 31 54 28 57 -2 2 -20 -22 -39 -55 -19 -33 -37 -60
-41 -60 -4 0 -19 21 -32 48 -29 56 -55 92 -56 75z"/>
<path d="M4308 868 c4 -140 9 -156 11 -36 1 90 4 109 19 117 15 9 14 10 -8 11
l-25 0 3 -92z"/>
<path d="M4437 953 c-10 -9 -9 -221 1 -226 4 -2 39 -1 77 2 l70 6 -70 5 -70 5
-3 40 c-2 27 1 43 13 51 14 11 14 12 -1 18 -13 5 -16 16 -12 56 5 53 5 54 -5
43z"/>
<path d="M4641 918 c1 -34 2 -38 8 -18 7 24 7 24 20 -8 8 -18 15 -31 18 -29 5
5 -35 97 -42 97 -3 0 -5 -19 -4 -42z"/>
<path d="M4850 941 c-13 -25 -13 -34 0 -26 5 3 11 -33 13 -92 l3 -98 2 118 c1
64 0 117 -3 117 -2 0 -9 -9 -15 -19z"/>
<path d="M1082 934 c2 -11 10 -18 16 -16 7 1 12 -4 12 -11 0 -7 7 -22 15 -33
11 -14 10 -7 -3 25 -19 45 -48 70 -40 35z"/>
<path d="M1299 945 c-3 -5 -3 -55 0 -110 3 -55 8 -89 11 -75 6 32 -3 198 -11
185z"/>
<path d="M2532 934 c2 -8 6 -14 10 -12 4 2 28 -40 54 -92 25 -52 48 -97 50
-100 6 -6 24 21 23 35 0 6 -3 4 -6 -2 -10 -26 -21 -11 -67 87 -26 55 -52 100
-57 100 -6 0 -9 -7 -7 -16z"/>
<path d="M2822 843 l-2 -113 78 2 77 2 -72 3 -73 4 0 49 0 49 53 4 52 3 -52 2
-52 2 -4 53 c-2 28 -4 1 -5 -60z"/>
<path d="M3628 939 c-25 -14 -24 -75 1 -89 30 -15 38 -12 13 6 -12 8 -22 26
-22 39 0 13 10 31 22 39 25 18 13 21 -14 5z"/>
<path d="M4046 937 c-11 -8 -17 -18 -15 -23 2 -5 14 1 26 14 24 24 17 30 -11
9z"/>
<path d="M1491 899 c-1 -4 6 -23 14 -43 l15 -36 -40 0 c-22 0 -40 -3 -40 -8 0
-4 19 -7 43 -7 39 0 43 -3 61 -38 10 -21 20 -36 23 -34 2 3 -14 42 -36 88 -22
46 -40 81 -40 78z"/>
<path d="M1906 885 c-9 -26 -7 -32 5 -12 6 10 9 21 6 23 -2 3 -7 -2 -11 -11z"/>
<path d="M4020 882 c0 -12 34 -42 48 -42 6 0 0 11 -14 25 -26 27 -34 30 -34
17z"/>
<path d="M4811 859 c-6 -18 -9 -34 -7 -36 2 -2 9 10 15 28 6 18 9 34 7 36 -2
2 -9 -10 -15 -28z"/>
<path d="M2701 848 c-10 -30 -9 -31 4 -14 8 11 15 26 15 33 0 22 -8 14 -19
-19z"/>
<path d="M1410 868 c0 -3 -7 -22 -15 -42 -8 -20 -13 -36 -10 -36 9 0 37 71 31
78 -3 3 -6 3 -6 0z"/>
<path d="M2330 844 c0 -8 5 -12 10 -9 6 4 8 11 5 16 -9 14 -15 11 -15 -7z"/>
<path d="M2003 838 c5 -14 -2 -18 -36 -21 l-42 -4 42 -1 c39 -2 44 -5 63 -42
30 -59 33 -48 4 18 -25 54 -44 86 -31 50z"/>
<path d="M4155 838 c11 -6 26 -18 33 -26 11 -14 12 -14 12 1 0 10 -12 22 -26
27 -34 13 -44 12 -19 -2z"/>
<path d="M3753 830 c20 -13 22 -49 5 -73 -9 -11 -32 -17 -78 -20 l-65 -3 66
-2 c54 -2 69 2 83 17 24 27 18 85 -9 89 -18 2 -18 2 -2 -8z"/>
<path d="M4700 833 c1 -11 39 -80 40 -72 0 11 -30 79 -35 79 -3 0 -5 -3 -5 -7z"/>
<path d="M1150 828 c0 -14 44 -98 52 -98 5 0 13 12 18 26 14 36 12 43 -4 15
l-13 -24 -15 24 c-9 13 -20 33 -26 44 -6 11 -12 17 -12 13z"/>
<path d="M2260 786 l0 -45 -52 -4 -53 -3 58 -2 57 -2 0 50 c0 28 -2 50 -5 50
-3 0 -5 -20 -5 -44z"/>
<path d="M2101 805 c-1 -23 6 -34 34 -55 18 -13 18 -12 -2 10 -11 14 -23 34
-26 45 l-5 20 -1 -20z"/>
<path d="M1870 808 c0 -3 -7 -22 -15 -42 -8 -20 -13 -36 -10 -36 9 0 37 71 31
78 -3 3 -6 3 -6 0z"/>
<path d="M4183 767 c-11 -24 -18 -26 -80 -30 l-68 -3 66 -2 c54 -2 69 1 83 17
10 11 16 25 14 32 -2 6 -9 0 -15 -14z"/>
<path d="M1363 763 c-3 -10 -8 -22 -10 -28 -3 -5 3 -1 11 9 16 20 21 36 11 36
-3 0 -8 -8 -12 -17z"/>
<path d="M4761 759 c-7 -12 -10 -23 -8 -26 3 -3 11 5 17 17 15 28 8 35 -9 9z"/>
<path d="M1081 744 c0 -11 3 -14 6 -6 3 7 2 16 -1 19 -3 4 -6 -2 -5 -13z"/>
<path d="M2330 738 c0 -9 107 -15 128 -7 9 4 -16 8 -56 10 -39 2 -72 1 -72 -3z"/>
</g>
</svg>
